<svg xmlns="http://www.w3.org/2000/svg" viewBox="0 0 110 110">
	<defs>
		<style>
			.cls-1{
				fill: #231f20;
			}
		</style>
	</defs>
	<path class="cls-1" d="M55,110a55,55,0,1,1,55-55A55.06,55.06,0,0,1,55,110ZM55,10a45,45,0,1,0,45,45A45.05,45.05,0,0,0,55,10Z" transform="translate(0 0)"/>
	<path d="M55.06,36.29a5.55,5.55,0,0,1-3.76-1.35,4.78,4.78,0,0,1-1.57-3.82,4.73,4.73,0,0,1,1.61-3.68A5.33,5.33,0,0,1,55.06,26a5.52,5.52,0,0,1,3.62,1.31,4.68,4.68,0,0,1,1.59,3.82,4.81,4.81,0,0,1-1.55,3.8A5.3,5.3,0,0,1,55.06,36.29Zm5.21,10.88V77.6a6.83,6.83,0,0,1-1.51,4.79A5,5,0,0,1,54.94,84a4.77,4.77,0,0,1-3.76-1.66,7,7,0,0,1-1.45-4.75V47.48a6.79,6.79,0,0,1,1.45-4.71,4.87,4.87,0,0,1,3.76-1.58,5.06,5.06,0,0,1,3.82,1.58A6.15,6.15,0,0,1,60.27,47.17Z" transform="translate(0 0)"/>
</svg>